name GIL08_xslow2Moments.mot
datacolumns 7
datarows 54
range 1.01666665 1.45833337
endheader

                time	          RHipMoment	          LHipMoment	         RKneeMoment	         LKneeMoment	        RAnkleMoment	        LAnkleMoment	
          1.01666665	        308.92361450	       -177.51838684	         27.76119614	        141.97071838	         33.92428207	        527.72314453	
          1.02499998	        337.57785034	       -134.56436157	         23.39532280	        141.01614380	         42.67391968	        457.71047974	
          1.03333330	        355.01147461	       -105.78752136	         19.90646362	        136.94075012	         50.77110672	        388.36895752	
          1.04166675	        341.42459106	       -103.78945160	         24.31499100	        131.79428101	         58.80140686	        321.48025513	
          1.04999995	        344.69387817	        -75.92161560	         26.78746223	        123.06449127	         67.11483002	        257.82055664	
          1.05833340	        342.83084106	       -112.18483734	         34.19939804	        121.45398712	         75.47634125	        199.54716492	
          1.06666660	        356.70565796	       -152.88925171	         37.39789963	        119.62859344	         84.60689545	        146.47306824	
          1.07500005	        358.19082642	       -188.86605835	         41.94680405	        114.49227142	         95.04524994	        100.18621826	
          1.08333325	        352.85745239	       -207.50175476	         52.17069626	        105.23918915	        106.18714905	         61.11748505	
          1.09166670	        343.32830811	       -209.56739807	         65.54747009	         90.91598511	        118.07987976	         31.67042732	
          1.10000002	        338.36621094	       -166.00444031	         79.05380249	         65.49183655	        129.07666016	         12.11948872	
          1.10833335	        326.21673584	        -88.54367828	         92.50431061	         27.44857788	        140.62110901	          2.60138869	
          1.11666667	        306.64028931	       -105.26692963	        103.41043854	         15.39362526	        151.94242859	         -3.86168218	
          1.12500000	        282.08609009	       -135.32737732	        114.87568665	          9.15937424	        163.10108948	         -8.16703892	
          1.13333333	        269.10720825	       -110.64652252	        125.35789490	        -11.50672054	        174.61541748	        -12.44237614	
          1.14166665	        266.54376221	       -101.96803284	        131.52992249	        -12.01389027	        186.89854431	        -11.82731628	
          1.14999998	        239.40209961	       -107.05535126	        144.05506897	         -9.88340759	        199.11364746	        -11.03204060	
          1.15833330	        203.63703918	       -114.67301941	        156.60467529	        -10.21995544	        212.54756165	        -10.34978771	
          1.16666675	        178.77555847	       -119.73874664	        166.32229614	        -15.16783047	        225.26806641	        -10.13165379	
          1.17499995	        172.58767700	        -70.48221588	        171.16239929	        -32.01332855	        237.58465576	         -9.19207668	
          1.18333340	        163.48626709	        -60.37022781	        174.61402893	        -34.15922165	        249.05563354	         -9.08588123	
          1.19166660	        166.09123230	        -70.93991089	        175.33181763	        -29.46620750	        260.12524414	         -9.26107025	
          1.20000005	        154.58926392	        -61.87145615	        182.53169250	        -31.02622414	        270.80178833	         -9.04234219	
          1.20833325	        143.80839539	        -45.50991440	        185.27462769	        -37.51141739	        281.56253052	         -8.91362953	
          1.21666670	        136.47290039	        -18.77786636	        187.19461060	        -46.26783752	        292.95227051	         -9.21349239	
          1.22500002	        115.71886444	         -7.43722486	        193.21591187	        -50.51797104	        305.26541138	         -9.97139168	
          1.23333335	         92.09552765	        -50.85045624	        195.66699219	        -41.76647186	        318.06994629	        -10.77973652	
          1.24166667	         69.28991699	       -111.52876282	        192.98545837	        -28.44121742	        332.17025757	        -11.18660545	
          1.25000000	         49.50563812	       -111.62951660	        190.45451355	        -32.05127716	        346.89489746	        -11.11449337	
          1.25833333	         55.29589462	        -64.76661682	        182.63116455	        -47.64007187	        362.54324341	        -10.87679005	
          1.26666665	         49.21803284	        -33.40233231	        177.56938171	        -58.04800415	        378.70068359	        -10.58402348	
          1.27499998	         28.38629532	        -40.65031052	        172.91621399	        -57.77724075	        394.72091675	        -10.40468788	
          1.28333330	         22.68735313	        -40.49198532	        164.80041504	        -59.22517014	        410.58590698	        -10.67800713	
          1.29166663	         24.24031830	        -17.22597504	        157.84242249	        -64.75973511	        426.65216064	        -11.31094456	
          1.29999995	         17.40506363	        -14.88016796	        152.34162903	        -62.62255478	        443.60513306	        -11.79686165	
          1.30833328	          8.53080273	        -61.82625961	        142.04603577	        -46.82432938	        461.47430420	        -12.01585388	
          1.31666672	         -5.23356295	       -101.45817566	        131.47396851	        -37.89019394	        480.55310059	        -12.38832664	
          1.32500005	        -10.04409599	        -95.96251678	        121.79812622	        -44.27828217	        499.19918823	        -13.07860756	
          1.33333337	         -4.33796263	        -67.67538452	        112.06279755	        -54.52453232	        517.19818115	        -13.72823524	
          1.34166670	         -1.69446170	        -43.25669479	        104.36192322	        -59.94758987	        533.25915527	        -14.08959961	
          1.35000002	          1.68415904	        -26.87961006	         97.19692993	        -61.68400192	        549.32641602	        -14.32493401	
          1.35833335	         10.50598526	        -20.53005791	         88.86643219	        -61.53346634	        565.94207764	        -14.53886127	
          1.36666667	         17.93594933	        -22.39090919	         81.33396912	        -58.92513657	        583.46386719	        -14.61722755	
          1.37500000	         17.85072899	        -26.86273956	         74.26882172	        -53.72365570	        602.06225586	        -14.51210880	
          1.38333333	         -1.70473051	        -36.40657425	         71.50215149	        -47.30478287	        620.50817871	        -14.39103794	
          1.39166665	        -27.33370399	        -51.56291580	         70.41505432	        -41.76689148	        638.87805176	        -14.37719059	
          1.39999998	        -34.65435028	        -60.52593994	         65.38842010	        -38.58401108	        656.68109131	        -14.40737247	
          1.40833330	        -27.42632675	        -55.30782318	         56.28083420	        -37.83484268	        674.38159180	        -14.37483788	
          1.41666663	        -29.72498131	        -44.90032959	         51.72052383	        -38.08383179	        693.92181396	        -14.26517487	
          1.42499995	        -27.99843025	        -43.69920731	         44.96800613	        -37.16425323	        716.87414551	        -14.12488461	
          1.43333328	        -20.98983765	        -52.04477692	         36.87884140	        -34.46337509	        741.56982422	        -13.96455765	
          1.44166672	        -18.55508232	        -60.06034470	         29.31472588	        -31.34245110	        768.14544678	        -13.77962208	
          1.45000005	        -29.99365997	        -65.62540436	         24.10547256	        -28.83870888	        795.68121338	        -13.59170437	
          1.45833337	        -47.17309570	        -70.35849762	         18.50883865	        -27.32222176	        824.68896484	        -13.45587444	
